<?xml version="1.0" encoding="iso-8859-1"?>
<!-- Generator: Adobe Illustrator 19.0.0, SVG Export Plug-In . SVG Version: 6.00 Build 0)  -->
<svg version="1.1" id="Layer_1" xmlns="http://www.w3.org/2000/svg" xmlns:xlink="http://www.w3.org/1999/xlink" x="0px" y="0px"
	 viewBox="0 0 512 512" style="enable-background:new 0 0 512 512;" xml:space="preserve">
<polyline style="fill:#C66500;" points="106.962,245.86 106.962,7.604 405.038,7.604 405.038,504.396 106.962,504.396 
	106.962,266.14 "/>
<path style="fill:#53180F;" d="M99.358,0v245.86h15.208v-31.936h84.151v84.15h-84.151V266.14H99.358V512h313.283V0H99.358z
	 M397.434,99.358h-84.151v-84.15h84.151V99.358z M213.925,397.434v-84.151h84.15v84.151H213.925z M298.075,412.642v84.15h-84.15
	v-84.15H298.075z M313.283,313.283h84.151v84.151h-84.151V313.283z M313.283,298.075v-84.15h84.151v84.15H313.283z M313.283,198.717
	v-84.151h84.151v84.151H313.283z M298.075,114.566v84.151h-84.15v-84.151H298.075z M213.925,99.358v-84.15h84.15v84.15H213.925z
	 M198.717,15.208v84.15h-84.151v-84.15H198.717z M114.566,198.717v-84.151h84.151v84.151H114.566z M213.925,213.925h84.15v84.15
	h-84.15V213.925z M198.717,313.283v84.151h-84.151v-84.151H198.717z M114.566,412.642h84.151v84.15h-84.151V412.642z
	 M382.223,496.792v-60.323h-15.208v60.323h-53.732v-84.15h84.151v84.15H382.223z"/>
<g>
</g>
<g>
</g>
<g>
</g>
<g>
</g>
<g>
</g>
<g>
</g>
<g>
</g>
<g>
</g>
<g>
</g>
<g>
</g>
<g>
</g>
<g>
</g>
<g>
</g>
<g>
</g>
<g>
</g>
</svg>
