<?xml version="1.0" encoding="iso-8859-1"?>
<!-- Generator: Adobe Illustrator 19.0.0, SVG Export Plug-In . SVG Version: 6.00 Build 0)  -->
<svg version="1.1" id="Layer_1" xmlns="http://www.w3.org/2000/svg" xmlns:xlink="http://www.w3.org/1999/xlink" x="0px" y="0px"
	 viewBox="0 0 512.002 512.002" style="enable-background:new 0 0 512.002 512.002;" xml:space="preserve">
<g transform="translate(-1)">
	<path style="fill:#659C35;" d="M286.205,43.301c183.279-42.574,249.266,159.275,186.168,243.07
		C367.691,145.901,255.875,144.374,286.205,43.301"/>
	<path style="fill:#E58D51;" d="M281.732,83.145c-14.97-3.28-30.512-5.042-46.462-5.042c-119.817,0-216.949,97.132-216.949,216.949
		s97.132,216.949,216.949,216.949S452.22,414.869,452.22,295.053c0-12.991-1.284-25.652-3.489-38.001
		C367.575,163.495,288.909,142.251,281.732,83.145"/>
	<path style="fill:#88C057;" d="M471.739,295.051c-4.799,0-8.678-3.888-8.678-8.678c0-133.979-109.004-242.983-242.983-242.983
		c-4.799,0-8.678-3.888-8.678-8.678s3.879-8.678,8.678-8.678c143.551,0,260.339,116.788,260.339,260.339
		C480.417,291.163,476.538,295.051,471.739,295.051"/>
	<path style="fill:#4C322C;" d="M235.264,86.78c-4.799,0-8.678-3.888-8.678-8.678c0-33.497-27.257-60.746-60.746-60.746
		c-4.799,0-8.678-3.888-8.678-8.678S161.042,0,165.841,0c43.069,0,78.102,35.042,78.102,78.102
		C243.942,82.892,240.063,86.78,235.264,86.78"/>
	<path style="fill:#CE6B29;" d="M61.705,303.729c-0.738,0-1.484-0.095-2.23-0.295c-3.801-1.007-6.448-4.443-6.448-8.383
		c0-100.491,81.755-182.237,182.237-182.237c4.799,0,8.678,3.888,8.678,8.678s-3.879,8.678-8.678,8.678
		c-90.607,0-164.378,73.476-164.881,163.97c0.182,1.718-0.174,3.506-1.093,5.129l-0.052,0.087
		C67.667,302.106,64.768,303.729,61.705,303.729"/>
</g>
<g>
</g>
<g>
</g>
<g>
</g>
<g>
</g>
<g>
</g>
<g>
</g>
<g>
</g>
<g>
</g>
<g>
</g>
<g>
</g>
<g>
</g>
<g>
</g>
<g>
</g>
<g>
</g>
<g>
</g>
</svg>
