<?xml version="1.0" encoding="iso-8859-1"?>
<!-- Generator: Adobe Illustrator 19.0.0, SVG Export Plug-In . SVG Version: 6.00 Build 0)  -->
<svg version="1.1" id="Layer_1" xmlns="http://www.w3.org/2000/svg" xmlns:xlink="http://www.w3.org/1999/xlink" x="0px" y="0px"
	 viewBox="0 0 511.998 511.998" style="enable-background:new 0 0 511.998 511.998;" xml:space="preserve">
<path style="fill:#CC1F3C;" d="M471.734,441.241L276.208,14.207c-8.696-18.999-35.71-18.926-44.31,0.116L39.104,441.241H471.734z"/>
<polygon style="fill:#FFD283;" points="39.104,441.241 471.734,441.241 480.36,460.947 30.534,460.947 "/>
<path style="fill:#ADA323;" d="M30.534,460.947l-12.165,24.575c-6.034,12.188,2.835,26.477,16.436,26.477H477.19
	c13.891,0,22.739-14.843,16.134-27.057l-12.968-23.994H30.534z"/>
<g>
	<ellipse style="fill:#563824;" cx="262.51" cy="114.534" rx="12.307" ry="21.949"/>
	<ellipse style="fill:#563824;" cx="301.377" cy="202.667" rx="12.307" ry="21.949"/>
	<ellipse style="fill:#563824;" cx="261.547" cy="245.782" rx="12.307" ry="21.949"/>
	<ellipse style="fill:#563824;" cx="227.261" cy="268.591" rx="12.307" ry="21.949"/>
	<ellipse style="fill:#563824;" cx="343.032" cy="290.523" rx="12.307" ry="21.946"/>
	<ellipse style="fill:#563824;" cx="214.947" cy="180.727" rx="12.307" ry="21.949"/>
	<ellipse style="fill:#563824;" cx="173.624" cy="290.523" rx="12.307" ry="21.946"/>
	<ellipse style="fill:#563824;" cx="273.861" cy="334.435" rx="12.307" ry="21.949"/>
</g>
<g style="opacity:0.2;">
	<path d="M129.198,486.471l-41.496-25.524v-19.706L251.056,0.207c-7.873,0.959-15.334,5.652-19.155,14.116L39.104,441.241
		l-8.57,19.706l-12.165,24.571c-6.034,12.191,2.835,26.48,16.436,26.48H477.19c13.316,0,21.956-13.632,16.835-25.524H129.198
		V486.471z"/>
</g>
<g style="opacity:0.2;">
	<ellipse style="fill:#FFFFFF;" cx="264.236" cy="103.757" rx="5.048" ry="9.001"/>
	<ellipse style="fill:#FFFFFF;" cx="343.563" cy="277.579" rx="5.048" ry="9.001"/>
	<ellipse style="fill:#FFFFFF;" cx="264.236" cy="233.634" rx="5.048" ry="9.005"/>
	<ellipse style="fill:#FFFFFF;" cx="232.837" cy="256.104" rx="5.048" ry="9.005"/>
	<ellipse style="fill:#FFFFFF;" cx="302.306" cy="193.97" rx="5.048" ry="9.005"/>
	<ellipse style="fill:#FFFFFF;" cx="178.672" cy="277.579" rx="5.048" ry="9.001"/>
	<ellipse style="fill:#FFFFFF;" cx="214.95" cy="170.504" rx="5.048" ry="9.001"/>
	<ellipse style="fill:#FFFFFF;" cx="274.824" cy="325.441" rx="5.048" ry="9.001"/>
</g>
<g>
</g>
<g>
</g>
<g>
</g>
<g>
</g>
<g>
</g>
<g>
</g>
<g>
</g>
<g>
</g>
<g>
</g>
<g>
</g>
<g>
</g>
<g>
</g>
<g>
</g>
<g>
</g>
<g>
</g>
</svg>
